<?xml version="1.0" encoding="UTF-8" standalone="no"?>
<svg
   xmlns:dc="http://purl.org/dc/elements/1.1/"
   xmlns:cc="http://creativecommons.org/ns#"
   xmlns:rdf="http://www.w3.org/1999/02/22-rdf-syntax-ns#"
   xmlns:svg="http://www.w3.org/2000/svg"
   xmlns="http://www.w3.org/2000/svg"
   xmlns:sodipodi="http://sodipodi.sourceforge.net/DTD/sodipodi-0.dtd"
   xmlns:inkscape="http://www.inkscape.org/namespaces/inkscape"
   width="610pt"
   height="610pt"
   viewBox="0 0 610 610"
   version="1.1"
   id="svg3466"
   inkscape:version="0.91 r13725"
   sodipodi:docname="sabrina.svg">
  <metadata
     id="metadata3478">
    <rdf:RDF>
      <cc:Work
         rdf:about="">
        <dc:format>image/svg+xml</dc:format>
        <dc:type
           rdf:resource="http://purl.org/dc/dcmitype/StillImage" />
      </cc:Work>
    </rdf:RDF>
  </metadata>
  <defs
     id="defs3476" />
  <sodipodi:namedview
     pagecolor="#ffffff"
     bordercolor="#666666"
     borderopacity="1"
     objecttolerance="10"
     gridtolerance="10"
     guidetolerance="10"
     inkscape:pageopacity="0"
     inkscape:pageshadow="2"
     inkscape:window-width="1680"
     inkscape:window-height="1026"
     id="namedview3474"
     showgrid="false"
     inkscape:zoom="6.3579332"
     inkscape:cx="494.72196"
     inkscape:cy="535.10952"
     inkscape:window-x="0"
     inkscape:window-y="24"
     inkscape:window-maximized="1"
     inkscape:current-layer="svg3466" />
  <path
     d="m -974.4047,-292.92538 610,0 0,610 -610,0 0,-610 z"
     id="path3468"
     inkscape:connector-curvature="0"
     style="fill:#fefdfd" />
  <path
     d=" M 199.59 51.73 C 263.67 24.52 338.12 23.32 403.17 48.00 C 474.13 74.34 532.85 131.52 561.20 201.68 C 577.98 242.64 584.61 287.70 580.45 331.74 C 576.50 373.98 562.78 415.35 540.27 451.34 C 505.06 508.13 448.70 551.64 384.42 570.28 C 324.10 588.30 257.59 584.86 199.59 560.27 C 153.09 541.21 112.55 508.49 82.93 468.03 C 79.83 463.51 76.42 459.18 73.72 454.40 C 47.22 413.66 32.59 365.53 30.51 317.07 C 28.33 261.22 43.23 204.55 73.73 157.60 C 86.79 136.64 103.25 117.97 121.36 101.27 C 144.45 80.60 170.85 63.42 199.59 51.73 Z"
     id="path3470"
     fill="#9b0101" />
  <path
     d="m 285.96,101.82504 c 11.3257,-2.929988 21.5575,-2.267119 33.05,-1.930002 6.66271,0.195442 13.85178,1.499372 20.58,3.217482 5.5869,1.42666 9.72528,2.60291 13.76,4.10645 3.05791,1.13953 6.15971,2.68484 9.26,4.02103 8.13174,3.50469 15.81259,7.94032 23.05,13.01 3.11988,2.18542 6.01714,4.67869 8.97,7.08 8.39989,6.83092 15.09233,15.61575 20.15,25.13 0.8543,1.60707 1.25081,3.39011 2.02,5.07 1.36192,2.97439 1.59258,6.3213 2.16,9.53 0.85259,4.82132 0.0462,9.69546 -1.12,14.35 -1.12335,4.48345 -3.30366,8.67596 -6.03,12.51 -3.94747,5.55132 -9.29547,9.93635 -15.28,12.9 -3.47711,1.72193 -7.35867,2.5543 -11.2,3.08 -4.59742,0.62918 -9.41594,0.62438 -13.98,-0.5 -2.29695,-0.56587 -4.66446,-0.88318 -6.94,-1.57 -1.03681,-0.31294 -1.88481,-1.08893 -2.86,-1.56 -1.38695,-0.66997 -2.91448,-1.06458 -4.19,-1.91 -6.51247,-4.3165 -11.0925,-11.07448 -15.12,-17.71 -0.99627,-1.64141 -1.74262,-3.46581 -2.16,-5.34 -0.61897,-2.77938 -0.21938,-5.69272 -0.46,-8.53 -0.093,-1.09671 -0.39579,-2.17947 -0.38,-3.28 0.0633,-4.4119 0.50801,-8.91297 1.9,-13.1 0.34351,-1.03325 1.20436,-1.84086 1.56,-2.87 0.22194,-0.64225 -0.007,-1.42577 0.34,-2.01 5.4855,-9.23519 14.38547,-17.41152 25.33,-19.92 1.79699,-0.41187 3.49929,-1.17473 5.32,-1.5 2.82863,-0.50533 5.8093,-0.65826 8.61,-0.02 3.16666,0.72165 4.81263,5.67808 7.08511,3.34914 1.91841,-1.96607 -1.86644,-4.06923 -3.96511,-5.73914 -4.422,-3.51858 -8.891,-6.35134 -13.96103,-9.05756 -2.65213,-1.41562 -5.64168,-2.96741 -7.97897,-4.13724 -2.99638,-1.49971 -5.9877,-2.88399 -9.03,-4.12109 -8.41978,-3.42375 -13.8064,-5.59619 -26.12,-6.93411 -17.61858,-1.91433 -21.16231,-1.28627 -31.63,0.02 -5.50037,0.6864 -11.42925,1.91185 -16.21,3.8 -3.6802,1.45349 -7.46256,2.59362 -11,4.43 -1.96785,1.02156 -3.9727,1.96471 -5.92,3.03 -3.15835,1.7278 -5.9727,3.89416 -8.93,5.95 -8.89155,6.18117 -16.23972,14.39851 -21.19,23.87 -2.48738,4.75916 -4.53443,10.27988 -5.45165,14.06 -1.63061,6.7202 -0.8789,12.95109 -0.75835,19.41 0.11819,6.33248 1.19817,11.81107 3.16,17.51 1.17321,3.40808 2.6626,6.71192 4.28,9.94 5.59347,11.16366 14.46504,20.11761 23.74,28.16 7.3921,6.40975 15.45547,12.14832 24.19,16.7 1.71891,0.89575 3.07994,2.37636 4.79,3.31 5.3629,2.92797 10.68133,5.94132 16.14,8.7 1.99333,1.00738 4.00101,1.96795 6.02,2.96 2.05208,1.0083 3.88399,2.41942 5.94,3.45 1.94407,0.97447 4.08862,1.51479 6.02,2.53 1.99101,1.04656 4.00291,2.02133 6.01,3.04 1.99365,1.01185 4.00546,1.97515 6,2.99 1.99746,1.01634 4.00206,1.98593 6,3.01 2.0019,1.0261 4.05304,1.93029 6.06,2.98 1.72262,0.90099 3.28472,2.05816 5,3.02 4.72636,2.65029 9.36855,5.44836 13.94,8.35 3.77946,2.39894 7.39789,5.03774 11.08,7.58 7.8213,5.4001 14.91035,11.77257 21.67,18.48 4.90109,4.86323 9.11366,10.25531 13.36,15.65 2.50143,3.17789 4.66194,6.60589 6.67,10.12 2.03206,3.55611 3.72789,7.26798 5.41,10.99 3.16659,7.00675 4.2139,14.02952 5.72,20.92 2.48408,11.36476 2.13264,23.11752 1.55,34.68 -0.12739,2.52806 -0.69482,4.98659 -1.24,7.45 -0.80793,3.65066 -1.35667,7.35664 -2.34,10.97 -0.27735,1.01915 -0.70084,1.99616 -1.05,3 -0.69087,1.98625 -1.28003,3.99611 -2.04,5.97 -7.51004,19.50614 -20.80713,36.73204 -37.76,48.84 -2.6213,1.87216 -5.18335,3.83221 -7.97,5.44 -7.06552,4.07654 -14.40901,7.79755 -22.12,10.53 -1.02024,0.36153 -2.00376,0.88612 -2.98583,1.33126 -2.69055,1.21954 -5.50687,2.19581 -9.02417,3.18874 -6.60005,1.86318 -12.48031,2.95193 -19.77,3.91874 -5.11319,0.67815 -9.26824,1.29409 -13.75,1.30126 -6.99011,0.0112 -13.97065,0.0976 -20.96,0 -6.49276,-0.0907 -12.17723,-1.31903 -19.58,-2.65 -4.40943,-0.79279 -8.16589,-2.06501 -11.77,-3.06291 -2.43598,-0.67447 -4.87202,-1.58089 -7.25,-2.52709 -6.86009,-2.72964 -12.94326,-6.19172 -18.9,-9.47 -25.14247,-13.83708 -47.02752,-34.05895 -61.74,-58.54 -1.47672,-2.45721 -2.21581,-6.85386 0.05,-8.59 1.71963,-1.31764 2.73109,3.37886 3.94,5.19 6.9613,10.42917 14.39342,20.70524 23.79,29.06 4.59039,4.08144 9.08121,8.27459 14.05,11.9 8.1243,5.92779 16.14841,11.55777 24.07026,15.96 4.34089,2.41227 8.65624,4.83111 12.71494,6.50858 3.5309,1.45933 7.02773,3.03618 10.3548,3.95142 4.72469,1.29971 9.70769,2.61117 13.82,3.62 3.43285,0.84214 6.67128,1.07793 10.27,1.45 4.31786,0.44642 8.11876,1.18655 12.25,1.09 3.99922,-0.0935 8.0182,0.16244 12.01,-0.10291 8.05639,-0.53554 14.72647,-1.20332 21.37,-3.18709 3.67668,-1.09786 7.4408,-1.92772 11.02,-3.34 3.06149,-1.208 6.0501,-2.51996 9.03,-3.99 6.03282,-2.9761 11.53268,-6.82369 16.86,-10.92 4.7455,-3.64893 8.31792,-8.35329 12.11,-12.84 1.55794,-1.84332 2.60282,-4.0335 3.84,-6.08 1.1638,-1.92512 2.20831,-3.90485 2.99,-6.02 0.75013,-2.02976 1.73872,-3.96232 2.55,-5.96 1.05089,-2.58769 1.06698,-5.43291 1.85,-8.1 2.14755,-7.31486 1.93702,-15.0634 1.13,-22.54 -0.57269,-5.30565 -1.36365,-9.72009 -3.16,-14.38 -2.44671,-6.34701 -4.68956,-12.76679 -8.78,-18.33 -3.5329,-4.80493 -7.17966,-9.45822 -11.31,-13.72 -6.26485,-6.46421 -13.46112,-12.05172 -20.96,-17.02 -3.01292,-1.99617 -6.05012,-3.84524 -9.18,-5.68 -3.00765,-1.76311 -5.88338,-3.69788 -8.9,-5.4 -2.35404,-1.32826 -4.64629,-2.74804 -7.03,-4.01 -1.69637,-0.89808 -3.23707,-2.04769 -4.93,-2.93 -10.59289,-5.52072 -21.30199,-10.82833 -32.06,-16.02 -1.30617,-0.63034 -2.61843,-1.31945 -3.92417,-1.91748 -2.91633,-1.33569 -6.03178,-3.05021 -9.04583,-4.63252 -7.59596,-3.9877 -14.9545,-8.38805 -22.08,-13.12 -12.27533,-8.15188 -24.28419,-17.15002 -33.62,-28.68 -3.85878,-4.76569 -7.84989,-9.38262 -11.21,-14.55 -4.31456,-6.63518 -8.45878,-13.48614 -10.96,-20.99 -2.86756,-8.60291 -4.94464,-18.87624 -5.43165,-26.76 -0.27268,-4.41421 -0.30013,-7.74995 -0.41835,-11.62 -0.22178,-7.25995 0.33869,-14.56646 1.82,-21.67 0.27878,-1.33689 0.5871,-2.67082 0.96,-3.99 0.5571,-1.97082 0.99745,-3.96808 1.63,-5.92 2.74921,-8.4835 6.53865,-16.62633 11.45,-24.07 3.10944,-4.71269 6.89445,-8.92356 10.5,-13.31 6.07379,-7.38925 13.61135,-13.20114 21.2,-18.82 3.14535,-2.32891 6.66173,-4.09977 10.07,-6.03 1.65671,-0.93825 3.36225,-1.75823 5.06,-2.62 1.59711,-0.81069 3.32625,-1.3297 4.98,-2.02 8.33683,-3.47994 17.24933,-6.32702 25.9,-8.53748 2.98999,-0.76402 4.26417,-0.91707 5.58,-1.25748 z"
     id="path3472"
     inkscape:connector-curvature="0"
     style="fill:#fefdfd"
     sodipodi:nodetypes="ssssssssssssssssssssssssssssssssssssssssssssssssssssssssssssssssssssssssssssssssssssssssssssssssssssssssssssssssssssssssssssssssss" />
  <circle
     style="fill:#ffffff;fill-opacity:1;fill-rule:evenodd;stroke:none;stroke-width:0.80000001px;stroke-linecap:butt;stroke-linejoin:miter;stroke-opacity:1"
     id="path3480"
     cx="378.32916"
     cy="174.59589"
     r="40.74971" />
  <ellipse
     style="fill:#ffffff;fill-opacity:1;stroke:none"
     id="path4284"
     cx="130.86014"
     cy="682.47638"
     rx="210.38284"
     ry="13.086014" />
</svg>
